<?xml version="1.0" standalone="no"?>
<!DOCTYPE svg PUBLIC "-//W3C//DTD SVG 20010904//EN"
 "http://www.w3.org/TR/2001/REC-SVG-20010904/DTD/svg10.dtd">
<svg version="1.0" xmlns="http://www.w3.org/2000/svg"
 width="260.000000pt" height="260.000000pt" viewBox="0 0 260.000000 260.000000"
 preserveAspectRatio="xMidYMid meet">
<metadata>
Created by potrace 1.14, written by Peter Selinger 2001-2017
</metadata>
<g transform="translate(0.000000,260.000000) scale(0.100000,-0.100000)"
fill="#000000" stroke="none">
<path d="M944 2529 c-69 -20 -127 -71 -164 -143 l-35 -69 0 -139 0 -138 -35
42 c-174 214 -365 258 -477 110 -79 -105 -81 -220 -9 -471 147 -507 249 -675
411 -675 65 0 141 37 173 85 31 45 25 87 -32 226 -42 104 -86 233 -86 256 0 6
14 -11 31 -39 80 -128 170 -214 235 -228 23 -5 37 -1 58 15 47 37 59 80 64
238 4 129 6 142 18 119 7 -14 25 -84 39 -154 29 -146 56 -201 121 -247 104
-73 220 -42 278 75 45 89 46 84 -152 625 -133 364 -180 445 -284 497 -53 27
-99 31 -154 15z"/>
<path d="M1885 1563 c-157 -48 -310 -225 -465 -538 -92 -185 -123 -289 -124
-420 -1 -89 2 -106 24 -149 45 -87 138 -138 223 -122 67 13 146 106 147 174 0
26 13 27 85 9 l50 -13 1 -65 c1 -94 37 -150 116 -184 47 -19 120 -19 156 -1
136 72 219 319 250 751 25 340 -46 487 -269 556 -72 23 -126 23 -194 2z m71
-464 c-14 -68 -35 -156 -47 -195 l-21 -72 -37 10 c-52 15 -51 13 -31 72 26 76
120 299 133 314 26 32 27 -12 3 -129z"/>
</g>
</svg>
